<?xml version="1.0" encoding="utf-8"?>
<svg version="1.1" xmlns="http://www.w3.org/2000/svg" x="0px" y="0px" viewBox="0 0 43.7 30" xml:space="preserve">
<style type="text/css">
	.st0{fill:#3A28FF;}
</style>
<path class="st0" d="M10.2,29.5C4.6,29.5,0,25,0,19.3v-9C-0.1,9,0.9,7.8,2.3,7.8S4.7,8.7,4.8,10c0,0.1,0,0.2,0,0.3v9
	c0.1,3,2.6,5.3,5.6,5.1c2.8-0.1,5-2.4,5.1-5.1v-9c-0.1-1.3,0.9-2.5,2.3-2.6c1.3-0.1,2.5,0.9,2.6,2.2c0,0.1,0,0.2,0,0.3l0,0v9
	C20.4,25,15.9,29.5,10.2,29.5z M35.9,19.2v-9c0-3,2.4-5.4,5.4-5.4c1.3,0,2.4-1.1,2.4-2.4c0-1.2-0.9-2.2-2.1-2.4c-0.1,0-0.2,0-0.3,0
	c-5.6,0-10.2,4.6-10.2,10.2v9c0,1.3,1.1,2.4,2.4,2.4S35.9,20.6,35.9,19.2L35.9,19.2z M41.3,8.4c-1.3,0-2.4,1.1-2.4,2.4l0,0v9
	c0,3-2.4,5.4-5.4,5.4c-3,0-5.4-2.4-5.4-5.4l0,0v-9.6C28.1,4.6,23.5,0,17.9,0C12.3,0,7.7,4.6,7.7,10.2l0,0v9c0,1.3,1.1,2.4,2.4,2.4
	c1.3,0,2.4-1.1,2.4-2.4v-9c0-3,2.4-5.4,5.4-5.4c3,0,5.4,2.4,5.4,5.4l0,0v9.6c0,5.6,4.6,10.2,10.2,10.2c5.6,0,10.2-4.6,10.2-10.2l0,0
	v-9C43.7,9.5,42.6,8.4,41.3,8.4z"/>
</svg>
